PathFileType	4	(X/Y/Z)	13_coords_data.trc
DataRate	CameraRate	NumFrames	NumMarkers	Units	OrigDataRate	OrigDataStartFrame	OrigNumFrames
30.0	30.0	5	21	m	30.0	57	66
Frame#	Time	THUMB_TIP	THUMB_IP	THUMB_MCP	THUMB_CMC	INDEX_TIP	INDEX_DIP	INDEX_PIP	INDEX_MCP	MIDDLE_TIP	MIDDLE_DIP	MIDDLE_PIP	MIDDLE_MCP	RING_TIP	RING_DIP	RING_PIP	RING_MCP	PINKY_TIP	PINKY_DIP	PINKY_PIP	PINKY_MCP	WRIST
X1	Y1	Z1	X2	Y2	Z2	X3	Y3	Z3	X4	Y4	Z4	X5	Y5	Z5	X6	Y6	Z6	X7	Y7	Z7	X8	Y8	Z8	X9	Y9	Z9	X10	Y10	Z10	X11	Y11	Z11	X12	Y12	Z12	X13	Y13	Z13	X14	Y14	Z14	X15	Y15	Z15	X16	Y16	Z16	X17	Y17	Z17	X18	Y18	Z18	X19	Y19	Z19	X20	Y20	Z20	X21	Y21	Z21
55	1.8666666666666587	0.5279785118661466	-0.022047436293880507	-0.15210201551770042	0.511656883066937	-0.02526884608603397	-0.13625187506747627	0.48661706341741284	-0.03191343906578481	-0.11899856187688174	0.47559954683820727	-0.031828098091830515	-0.07577244656050042	0.5707451114677128	-0.0018972727693212788	-0.1504766625809444	0.5563203729723345	0.008653668307217255	-0.14754330925422704	0.5341034640625959	0.018468718301796194	-0.14105612303057835	0.49717656463386783	0.0106889728178029	-0.12131996958607727	0.5901655815607104	0.01092802410891569	-0.13539221726683415	0.5749528521802698	0.018784820217703446	-0.1294893688271046	0.5488589558549184	0.027748528158995422	-0.12009947721404368	0.5086141105776756	0.022283400182816382	-0.10148140196941191	0.59154409653642	0.004026824652512917	-0.11437298907738269	0.5783057950130136	0.01393316982462045	-0.1071888608695597	0.5579441573419768	0.02473219500473789	-0.0977567484066697	0.5203876983327682	0.0225768621534721	-0.08293825452267811	0.5889135236360727	-0.016483155359883206	-0.08369267426713145	0.5774066200703282	-0.00513069018365353	-0.07806127082294911	0.5604559195491121	0.00559909884197074	-0.0718679358323614	0.5262090189419815	0.012385464581528338	-0.0628137384712324	0.4622830810018609	-0.023011742144276925	-0.051989820119430985
56	1.8999999999999915	0.5278189855332516	-0.021497683784336696	-0.15213797163375536	0.5114681631736551	-0.02481803319894993	-0.13633841822456694	0.48645715294143926	-0.031610119679326365	-0.1191007580467155	0.4755734293076905	-0.03168181252090829	-0.07584073701111438	0.5700537620803225	-0.001249551401839799	-0.15076814556466972	0.5556346190916692	0.009289486717102613	-0.1477653150665817	0.5334629785676431	0.01916369959065356	-0.14121336042684507	0.4966527791792278	0.011180674635349108	-0.12134085108483961	0.5895242353494013	0.012321699867029023	-0.1360126294848638	0.5742878588833502	0.020020060281822794	-0.12996382141147445	0.5481724107534047	0.028703365953778537	-0.12037251693400575	0.5081016862155991	0.022748753748251582	-0.10153034217902868	0.5911730923662508	0.00536353588602323	-0.11516325877699074	0.5778698011061112	0.015080608511105376	-0.1078419924079278	0.5574578089799436	0.025591182353120856	-0.09819531453661812	0.5200387910410681	0.022895507450973573	-0.08311979572922545	0.58879455442891	-0.01571134380262107	-0.08501731848630834	0.577166252535203	-0.004574530169314639	-0.07920750117714914	0.5601504897172651	0.005901153947004967	-0.07276266781865393	0.5260346409737815	0.012592001346972137	-0.06315928942445803	0.4622830810018609	-0.023011742144276925	-0.051989820119430985
58	1.933333333333334	0.5276852910207437	-0.020866291616138177	-0.15216082201378306	0.5112850822979715	-0.024291463243052536	-0.13643500396906127	0.4863127637510756	-0.031255680904328176	-0.11920993564528604	0.47555470048200443	-0.03149255768375103	-0.07591908252259927	0.5693296413322447	-0.0005923524908133526	-0.1509776475728855	0.5549408193997273	0.009975817603124049	-0.14793206318562674	0.5328141555109265	0.019909779637111824	-0.14131866946837912	0.49610797704982634	0.011747503905703782	-0.12132692588092941	0.5888427755202259	0.013919665713406526	-0.13662888150459318	0.5735727798505019	0.021421787178282914	-0.13042038685831636	0.5474321874551025	0.029787984283790037	-0.1206180542170826	0.5075559018150161	0.023264449323110337	-0.10155307962577953	0.5907837424708575	0.0068879218647104334	-0.11598469953354085	0.5774050811599867	0.01638853553239028	-0.108518123245408	0.5569330733071651	0.026555920676797795	-0.09863373389657648	0.5196707954733284	0.02323527434102668	-0.08329695481664279	0.5886351382800084	-0.01490768541249643	-0.08652740026628847	0.5768669379285112	-0.004031274843213306	-0.08050966368054391	0.5597953931696826	0.006175068857856569	-0.07378620275606873	0.5258559768627487	0.012792895439272312	-0.06352931028890618	0.46228308100186083	-0.023011742144276925	-0.051989820119430985
59	1.9666666666666672	0.5276034459668966	-0.020254678569148088	-0.15214767256010003	0.5111459266607976	-0.023778092722407163	-0.1365036445943234	0.48620319312614907	-0.030909632954928767	-0.11930419176199647	0.4755462727088126	-0.031304728079757704	-0.07598948355495783	0.5686465118542285	1.3706508284805352e-05	-0.15112667105490135	0.5542984664266555	0.010628944892146608	-0.14805253597945534	0.5322160887474752	0.02062339436642202	-0.1413824978431174	0.4955992992931509	0.012305578178278709	-0.12129118733538946	0.5881899501591437	0.015536025304887624	-0.13718607098445046	0.5728841569820688	0.022833796478417434	-0.13082405627844673	0.546717101689914	0.030868524654519947	-0.12081716313054824	0.5070370318318549	0.023770741457130984	-0.10154901711847941	0.5904060778802396	0.008463791741166626	-0.11673190808650746	0.576950029795734	0.017737810248865116	-0.10912090613759551	0.5564145408253953	0.02755037354067913	-0.09901213403643294	0.5193170406451147	0.023579778645487437	-0.08343231726753708	0.5884849418175173	-0.01405585384773711	-0.08784106700896888	0.5765855858505757	-0.0034299566011539717	-0.08163658191533973	0.5594594738966643	0.006516460060154938	-0.07466685423473907	0.5256743482171566	0.013013098761942565	-0.06383900036620604	0.46228308100186094	-0.023011742144276925	-0.051989820119430985
60	2.000000000000001	0.5275821212511942	-0.019683117635980962	-0.15209562672372945	0.5110614831418665	-0.023297221007046565	-0.13653905983755943	0.48613707821558755	-0.030585428516176183	-0.11937875475942183	0.4755489576965569	-0.031126774777749167	-0.07604875766618902	0.5680354249931363	0.0005425475270254276	-0.15121050347205323	0.5537388566095641	0.011223356043681076	-0.1481236827962802	0.53169754308193	0.021274126462514475	-0.1414026453046099	0.49515119028100113	0.01282985063094555	-0.12123597982341494	0.5875966331281002	0.01709328610908234	-0.13765722946086978	0.5722554505185798	0.024191273018710713	-0.13115594512836337	0.5460621654802937	0.03189570403423336	-0.12095971486271351	0.5065701217101616	0.024246465190576383	-0.10151709299809197	0.5900531665331905	0.010022897053090896	-0.11736272809348125	0.5765226479215908	0.01907162972131682	-0.10961382473880354	0.5559233694302006	0.028538553772281094	-0.09930717379645448	0.5189914351145442	0.023920909503849397	-0.08351380736892355	0.5883626691420603	-0.013173661931795477	-0.08885237449474082	0.5763502521969951	-0.002767471338706584	-0.08249524963532373	0.5591698362527427	0.006943180122630177	-0.07532945762195076	0.5254936563054342	0.013255673920775202	-0.06406221407240098	0.4622830810018609	-0.023011742144276925	-0.051989820119430985
